<svg xmlns="http://www.w3.org/2000/svg" xmlns:xlink="http://www.w3.org/1999/xlink" version="1.1" x="0px" y="0px" viewBox="0 0 16 20" style="enable-background:new 0 0 16 16;" xml:space="preserve"><g><path d="M15.023,8.783l-2.547-0.566c-0.151-0.034-0.333-0.064-0.524-0.093L10.53,5.848C10.238,5.382,9.55,5,9,5H4.5   c-0.55,0-1.201,0.402-1.447,0.895L2,8H1C0.45,8,0,8.45,0,9v2c0,0.55,0.45,1,1,1h0.5c0-1.379,1.122-2.5,2.5-2.5s2.5,1.121,2.5,2.5h3   c0-1.379,1.121-2.5,2.5-2.5s2.5,1.121,2.5,2.5H15c0.553,0,1-0.447,1-1v-1C16,9.45,15.561,8.902,15.023,8.783z M7,8   c0,0-2.561,0-2.882,0l0.83-1.658C5.024,6.188,5.329,6,5.5,6H7V8z M8,8V6h1c0.204,0,0.574,0.206,0.683,0.378L10.695,8H8z"/><path d="M4,10c-1.104,0-2,0.896-2,2s0.896,2,2,2s2-0.896,2-2S5.104,10,4,10z M4,13c-0.553,0-1-0.447-1-1s0.447-1,1-1s1,0.447,1,1   S4.553,13,4,13z"/><path d="M12,10c-1.104,0-2,0.896-2,2s0.896,2,2,2s2-0.896,2-2S13.104,10,12,10z M12,13c-0.553,0-1-0.447-1-1s0.447-1,1-1   s1,0.447,1,1S12.553,13,12,13z"/></g><text x="0" y="31" fill="#000000" font-size="5px" font-weight="bold" font-family="'Helvetica Neue', Helvetica, Arial-Unicode, Arial, Sans-serif">Created by Rflor</text><text x="0" y="36" fill="#000000" font-size="5px" font-weight="bold" font-family="'Helvetica Neue', Helvetica, Arial-Unicode, Arial, Sans-serif">from the Noun Project</text></svg>